<?xml version="1.0" encoding="UTF-8" standalone="no"?>
<svg
   xmlns:dc="http://purl.org/dc/elements/1.1/"
   xmlns:cc="http://creativecommons.org/ns#"
   xmlns:rdf="http://www.w3.org/1999/02/22-rdf-syntax-ns#"
   xmlns:svg="http://www.w3.org/2000/svg"
   xmlns="http://www.w3.org/2000/svg"
   xmlns:sodipodi="http://sodipodi.sourceforge.net/DTD/sodipodi-0.dtd"
   xmlns:inkscape="http://www.inkscape.org/namespaces/inkscape"
   x="0"
   y="0"
   width="256"
   height="256"
   version="1.1"
   viewBox="0 0 256 256"
   id="svg12"
   sodipodi:docname="key.svg"
   inkscape:version="0.92.1 r15371"
   inkscape:export-filename="C:\work\workspaces\ws-wisag_micas_2017-09_orginal\de.wisag.automation.micas\plugins\de.wisag.automation.micas.workbench.licmgr.rcp\icons\key-256x256.png"
   inkscape:export-xdpi="96"
   inkscape:export-ydpi="96">
  <metadata
     id="metadata18">
    <rdf:RDF>
      <cc:Work
         rdf:about="">
        <dc:format>image/svg+xml</dc:format>
        <dc:type
           rdf:resource="http://purl.org/dc/dcmitype/StillImage" />
        <dc:title>key icon</dc:title>
      </cc:Work>
    </rdf:RDF>
  </metadata>
  <defs
     id="defs16" />
  <sodipodi:namedview
     pagecolor="#ffffff"
     bordercolor="#666666"
     borderopacity="1"
     objecttolerance="10"
     gridtolerance="10"
     guidetolerance="10"
     inkscape:pageopacity="0"
     inkscape:pageshadow="2"
     inkscape:window-width="1453"
     inkscape:window-height="679"
     id="namedview14"
     showgrid="false"
     inkscape:zoom="0.4609375"
     inkscape:cx="-159.06248"
     inkscape:cy="128.00143"
     inkscape:window-x="42"
     inkscape:window-y="46"
     inkscape:window-maximized="0"
     inkscape:current-layer="svg12"
     fit-margin-top="0"
     fit-margin-left="0"
     fit-margin-right="0"
     fit-margin-bottom="0" />
  <title
     id="title2">key icon</title>
  <desc
     id="desc4">key icon from the IconExperience.com G-Collection. Copyright by INCORS GmbH (www.incors.com).</desc>
  <g
     id="g10"
     transform="matrix(0.5517262,0,0,0.5000028,-8.8345158,-0.00143177)">
    <path
       d="m 134.9,387.45 57.1,56.6 -22.85,22.65 -34.25,-33.95 -11.4,11.3 22.85,22.65 -11.45,11.35 11.45,11.3 L 123.5,512 66.4,455.4 c -6.3,6.2 -16.55,6.2 -22.85,0 L 20.7,432.75 c -6.25,-6.25 -6.25,-16.4 0,-22.65 l 79.95,-79.25 -5.7,-5.65 c -3.15,-3.15 -3.15,-8.2 0,-11.35 L 117.8,291.2 c 3.15,-3.1 8.25,-3.1 11.4,0 l 5.7,5.65 151.3,-150 c -24.6,-41.1 -22.45,-90.95 8.6,-121.7 37.8,-37.55 104.3,-32.45 148.45,11.3 44.15,43.8 49.25,109.7 11.4,147.2 -31.05,30.75 -81.35,32.9 -122.75,8.5 l -151.3,150 5.7,5.65 c 3.15,3.15 3.15,8.25 0,11.35 l -22.85,22.65 c -3.15,3.1 -8.25,3.1 -11.4,0 l -5.7,-5.65 z M 329.05,59.1 c -18.95,18.75 -13.8,54.25 11.4,79.25 25.25,25 61,30.1 79.95,11.35 C 439.3,130.9 434.2,95.45 409,70.4 383.75,45.4 347.95,40.35 329.05,59.1 Z"
       id="path6"
       inkscape:connector-curvature="0"
       style="fill:#fbd734" />
    <path
       d="m 134.9,387.45 57.1,56.6 -22.85,22.65 -34.25,-33.95 -11.4,11.3 22.85,22.65 -11.45,11.35 11.45,11.3 L 123.5,512 66.4,455.4 c -6.3,6.2 -16.55,6.2 -22.85,0 l -11.4,-11.35 308.3,-305.7 c 25.25,25 61,30.1 79.95,11.35 18.9,-18.8 13.8,-54.25 -11.4,-79.3 l 34.25,-33.95 c 44.15,43.8 49.25,109.7 11.4,147.2 -31.05,30.75 -81.35,32.9 -122.75,8.5 l -151.3,150 5.7,5.65 c 3.15,3.15 3.15,8.25 0,11.35 l -22.85,22.65 c -3.15,3.1 -8.25,3.1 -11.4,0 l -5.7,-5.65 z"
       id="path8"
       inkscape:connector-curvature="0"
       style="fill:#f9bf2c" />
  </g>
</svg>
