<?xml version="1.0" encoding="UTF-8" standalone="no"?>
<!-- Created with Inkscape (http://www.inkscape.org/) -->

<!-- tralala-->

<svg
   xmlns:dc="http://purl.org/dc/elements/1.1/"
   xmlns:cc="http://creativecommons.org/ns#"
   xmlns:rdf="http://www.w3.org/1999/02/22-rdf-syntax-ns#"
   xmlns:svg="http://www.w3.org/2000/svg"
   xmlns="http://www.w3.org/2000/svg"
   xmlns:sodipodi="http://sodipodi.sourceforge.net/DTD/sodipodi-0.dtd"
   xmlns:inkscape="http://www.inkscape.org/namespaces/inkscape"
   width="1052.3622"
   height="744.09448"
   id="svg2985"
   version="1.1"
   inkscape:version="0.48.4 r9939"
   sodipodi:docname="template_a4.svg">
  <defs
     id="defs3" />
  <sodipodi:namedview
     inkscape:document-units="mm"
     id="base"
     pagecolor="#ffffff"
     bordercolor="#666666"
     borderopacity="1.0"
     inkscape:pageopacity="0.0"
     inkscape:pageshadow="2"
     inkscape:zoom="3.959798"
     inkscape:cx="941.79072"
     inkscape:cy="59.189381"
     inkscape:current-layer="g3227"
     showgrid="false"
     units="pt"
     inkscape:window-width="1220"
     inkscape:window-height="668"
     inkscape:window-x="2298"
     inkscape:window-y="258"
     inkscape:window-maximized="0"
     showborder="true"
     showguides="true"
     inkscape:guide-bbox="true">
    <sodipodi:guide
       orientation="1,0"
       position="12.626907,101.01525"
       id="guide3282" />
    <sodipodi:guide
       orientation="1,0"
       position="1038.4368,91.923882"
       id="guide3284" />
  </sodipodi:namedview>
  <metadata
     id="metadata4">
    <rdf:RDF>
      <cc:Work
         rdf:about="">
        <dc:format>image/svg+xml</dc:format>
        <dc:type
           rdf:resource="http://purl.org/dc/dcmitype/StillImage" />
        <dc:title />
      </cc:Work>
    </rdf:RDF>
  </metadata>
  <g
     inkscape:label="Layer 1"
     inkscape:groupmode="layer"
     id="layer1"
     transform="translate(0,-308.2677)">
    <rect
       style="fill:none;stroke:#000000;stroke-width:1.78135598;stroke-miterlimit:4;stroke-opacity:1;stroke-dasharray:none"
       id="DRAWING_AREA"
       x="12.847334"
       y="330.60715"
       width="1025.7339"
       height="637.79578"
       inkscape:label="#rect5054" />
    <g
       id="g3227"
       transform="matrix(1.0017675,0,0,1,-3.973808,0)">
      <g
         transform="translate(-14.428617,195.1385)"
         id="g5365">
        <rect
           width="1024"
           height="64.702789"
           x="31.000042"
           y="781.72333"
           id="rect5054-1"
           style="fill:none;stroke:#000000;stroke-width:1.64462781;stroke-miterlimit:4;stroke-opacity:1;stroke-dasharray:none" />
        <path
           d="m 30.999916,797.12749 225.000004,0"
           id="path5320"
           style="fill:none;stroke:#000000;stroke-width:1px;stroke-linecap:butt;stroke-linejoin:miter;stroke-opacity:1"
           inkscape:connector-curvature="0" />
        <path
           d="M 30.999916,815.51227 255.99992,813.39095"
           id="path5322"
           style="fill:none;stroke:#000000;stroke-width:1px;stroke-linecap:butt;stroke-linejoin:miter;stroke-opacity:1"
           inkscape:connector-curvature="0" />
        <path
           d="m 30.999916,830.36151 225.000004,0"
           id="path5324"
           style="fill:none;stroke:#000000;stroke-width:1px;stroke-linecap:butt;stroke-linejoin:miter;stroke-opacity:1"
           inkscape:connector-curvature="0" />
        <path
           d="M 696.99992,813.39095 1055,814.09806"
           id="path5326"
           style="fill:none;stroke:#000000;stroke-width:1px;stroke-linecap:butt;stroke-linejoin:miter;stroke-opacity:1"
           inkscape:connector-curvature="0" />
        <path
           d="m 901.5,829.6544 153.5,0"
           id="path5330"
           style="fill:none;stroke:#000000;stroke-width:0.99790227px;stroke-linecap:butt;stroke-linejoin:miter;stroke-opacity:1"
           inkscape:connector-curvature="0" />
        <path
           d="m 132.93607,846.62497 0,-64.34672"
           id="path5342"
           style="fill:none;stroke:#000000;stroke-width:1px;stroke-linecap:butt;stroke-linejoin:miter;stroke-opacity:1"
           inkscape:connector-curvature="0" />
        <path
           d="m 183.84776,847.33207 0,-65.05382"
           id="path5344"
           style="fill:none;stroke:#000000;stroke-width:1px;stroke-linecap:butt;stroke-linejoin:miter;stroke-opacity:1"
           inkscape:connector-curvature="0" />
        <path
           d="m 697,781.84448 0,64.5"
           id="path5351"
           style="fill:none;stroke:#000000;stroke-width:1px;stroke-linecap:butt;stroke-linejoin:miter;stroke-opacity:1"
           inkscape:connector-curvature="0" />
        <path
           d="m 409.25,781.84448 0,64.5"
           id="path5355"
           style="fill:none;stroke:#000000;stroke-width:1px;stroke-linecap:butt;stroke-linejoin:miter;stroke-opacity:1"
           inkscape:connector-curvature="0" />
        <path
           d="m 256,781.59448 0,65"
           id="path5359"
           style="fill:none;stroke:#000000;stroke-width:1px;stroke-linecap:butt;stroke-linejoin:miter;stroke-opacity:1"
           inkscape:connector-curvature="0" />
        <path
           d="m 901.5,781.59448 0,64.5"
           id="path5363"
           style="fill:none;stroke:#000000;stroke-width:1px;stroke-linecap:butt;stroke-linejoin:miter;stroke-opacity:1"
           inkscape:connector-curvature="0" />
        <text
           transform="scale(0.99991951,1.0000805)"
           x="31.002537"
           y="809.50732"
           id="text5384-0-4-1-4-17"
           xml:space="preserve"
           style="font-size:39.9967804px;font-style:normal;font-weight:normal;line-height:125%;letter-spacing:0px;word-spacing:0px;fill:#000000;fill-opacity:1;stroke:none;font-family:Sans"
           sodipodi:linespacing="125%"><tspan
             x="31.002537"
             y="809.50732"
             id="tspan5386-9-8-2-1-4"
             style="font-size:9.9991951px">${MODULE::createdDate}</tspan></text>
        <text
           transform="scale(0.99991951,1.0000805)"
           x="185.40092"
           y="808.17859"
           id="text5384-8-5-7-1"
           xml:space="preserve"
           style="font-size:39.9967804px;font-style:normal;font-weight:normal;line-height:125%;letter-spacing:0px;word-spacing:0px;fill:#000000;fill-opacity:1;stroke:none;font-family:Sans"
           sodipodi:linespacing="125%"><tspan
             x="185.40092"
             y="808.17859"
             id="tspan5386-2-1-6-4"
             style="font-size:7.99935675px">${MODULE::examiner}</tspan></text>
        <text
           transform="scale(0.99991951,1.0000805)"
           x="260.55692"
           y="809.00232"
           id="text5384-0-4-1-4"
           xml:space="preserve"
           style="font-size:39.9967804px;font-style:normal;font-weight:normal;line-height:125%;letter-spacing:0px;word-spacing:0px;fill:#000000;fill-opacity:1;stroke:none;font-family:Sans"
           sodipodi:linespacing="125%"><tspan
             x="260.55692"
             y="809.00232"
             id="tspan5386-9-8-2-1"
             style="font-size:9.9991951px">${MODULE::processor}</tspan></text>
      </g>
      <text
         x="24.410229"
         y="988.46521"
         id="text5384"
         xml:space="preserve"
         style="font-size:40px;font-style:normal;font-weight:normal;line-height:125%;letter-spacing:0px;word-spacing:0px;fill:#000000;fill-opacity:1;stroke:none;font-family:Sans"
         sodipodi:linespacing="125%"><tspan
           x="24.410229"
           y="988.46521"
           id="tspan5386"
           style="font-size:12px">Ausgabedatum</tspan></text>
      <text
         x="120.20238"
         y="989.02942"
         id="text5384-0"
         xml:space="preserve"
         style="font-size:40px;font-style:normal;font-weight:normal;line-height:125%;letter-spacing:0px;word-spacing:0px;fill:#000000;fill-opacity:1;stroke:none;font-family:Sans"
         sodipodi:linespacing="125%"><tspan
           x="120.20238"
           y="989.02942"
           id="tspan5386-9"
           style="font-size:12px">Name</tspan></text>
      <text
         x="183.10028"
         y="988.45398"
         id="text5384-0-4"
         xml:space="preserve"
         style="font-size:40px;font-style:normal;font-weight:normal;line-height:125%;letter-spacing:0px;word-spacing:0px;fill:#000000;fill-opacity:1;stroke:none;font-family:Sans"
         sodipodi:linespacing="125%"><tspan
           x="183.10028"
           y="988.45398"
           id="tspan5386-9-8"
           style="font-size:12px">Geprüft</tspan></text>
      <text
         x="246.32117"
         y="988.46594"
         id="text5384-0-4-1"
         xml:space="preserve"
         style="font-size:40px;font-style:normal;font-weight:normal;line-height:125%;letter-spacing:0px;word-spacing:0px;fill:#000000;fill-opacity:1;stroke:none;font-family:Sans"
         sodipodi:linespacing="125%"><tspan
           x="246.32117"
           y="988.46594"
           id="tspan5386-9-8-2"
           style="font-size:12px">Planersteller</tspan></text>
      <text
         x="686.02698"
         y="989.71594"
         id="text5384-0-4-1-4-1-8"
         xml:space="preserve"
         style="font-size:40px;font-style:normal;font-weight:normal;line-height:125%;letter-spacing:0px;word-spacing:0px;fill:#000000;fill-opacity:1;stroke:none;font-family:Sans"
         sodipodi:linespacing="125%"><tspan
           x="686.02698"
           y="989.71594"
           id="tspan5386-9-8-2-1-3-7"
           style="font-size:12px">Informationsschwerpunkt</tspan></text>
      <text
         transform="scale(0.99991951,1.0000805)"
         x="409.6861"
         y="988.75061"
         id="text5384-0-4-1-3"
         xml:space="preserve"
         style="font-size:39.9967804px;font-style:normal;font-weight:normal;line-height:125%;letter-spacing:0px;word-spacing:0px;fill:#000000;fill-opacity:1;stroke:none;font-family:Sans"
         sodipodi:linespacing="125%"><tspan
           x="409.6861"
           y="988.75061"
           id="tspan5386-9-8-2-3"
           style="font-size:11.99903488px">Projekt</tspan></text>
      <text
         transform="scale(0.99991951,1.0000805)"
         x="450.24692"
         y="989.12854"
         id="text5384-0-4-1-4-1"
         xml:space="preserve"
         style="font-size:39.9967804px;font-style:normal;font-weight:normal;line-height:125%;letter-spacing:0px;word-spacing:0px;fill:#000000;fill-opacity:1;stroke:none;font-family:Sans"
         sodipodi:linespacing="125%"><tspan
           x="450.24692"
           y="989.12854"
           id="tspan5386-9-8-2-1-3"
           style="font-size:11.99903488px">${PROJECTNAME}</tspan></text>
      <text
         transform="scale(0.99991951,1.0000805)"
         x="453.91275"
         y="1003.2155"
         id="text5384-0-4-1-4-17-0"
         xml:space="preserve"
         style="font-size:7.99935675px;font-style:normal;font-weight:normal;line-height:125%;letter-spacing:0px;word-spacing:0px;fill:#000000;fill-opacity:1;stroke:none;font-family:Sans"
         sodipodi:linespacing="125%"><tspan
           x="453.91275"
           y="1003.2155"
           id="tspan5386-9-8-2-1-4-9"
           style="font-size:7.99935675px">${MODULE::kind}</tspan></text>
      <text
         transform="scale(0.99991951,1.0000805)"
         x="453.67511"
         y="1012.2507"
         id="text5384-0-4-1-4-17-0-4"
         xml:space="preserve"
         style="font-size:7.99935675px;font-style:normal;font-weight:normal;line-height:125%;letter-spacing:0px;word-spacing:0px;fill:#000000;fill-opacity:1;stroke:none;font-family:Sans"
         sodipodi:linespacing="125%"><tspan
           x="453.67511"
           y="1012.2507"
           id="tspan5386-9-8-2-1-4-9-8"
           style="font-size:7.99935675px">${MODULE::name}</tspan></text>
      <text
         transform="scale(0.99991951,1.0000805)"
         x="430.15411"
         y="1023.2972"
         id="text5384-0-4-1-4-17-0-4-8"
         xml:space="preserve"
         style="font-size:7.99935675px;font-style:normal;font-weight:normal;line-height:125%;letter-spacing:0px;word-spacing:0px;fill:#000000;fill-opacity:1;stroke:none;font-family:Sans"
         sodipodi:linespacing="125%"><tspan
           x="430.15411"
           y="1023.2972"
           id="tspan5386-9-8-2-1-4-9-8-2"
           style="font-size:7.99935675px">${MODULE::lineNumber}</tspan></text>
      <text
         transform="scale(0.99991951,1.0000805)"
         x="430.36789"
         y="1034.8939"
         id="text5384-0-4-1-4-17-0-4-8-4"
         xml:space="preserve"
         style="font-size:7.99935675px;font-style:normal;font-weight:normal;line-height:125%;letter-spacing:0px;word-spacing:0px;fill:#000000;fill-opacity:1;stroke:none;font-family:Sans"
         sodipodi:linespacing="125%"><tspan
           x="430.36789"
           y="1034.8939"
           id="tspan5386-9-8-2-1-4-9-8-2-5"
           style="font-size:7.99935675px">${MODULE::stationNumber}</tspan></text>
      <text
         transform="scale(0.98720581,1.01296)"
         x="512.64697"
         y="1020.6136"
         id="text5384-0-4-1-4-17-0-4-8-4-5"
         xml:space="preserve"
         style="font-size:7.89764595px;font-style:normal;font-weight:normal;line-height:125%;letter-spacing:0px;word-spacing:0px;fill:#000000;fill-opacity:1;stroke:none;font-family:Sans"
         sodipodi:linespacing="125%"><tspan
           x="512.64697"
           y="1020.6136"
           id="tspan5386-9-8-2-1-4-9-8-2-5-1"
           style="font-size:7.89764595px">${MODULE::fieldBusNumber}</tspan></text>
      <text
         transform="scale(0.99991951,1.0000805)"
         x="396.85049"
         y="1023.5439"
         id="text5384-0-4-1-4-1-8-1"
         xml:space="preserve"
         style="font-size:39.9967804px;font-style:normal;font-weight:normal;line-height:125%;letter-spacing:0px;word-spacing:0px;fill:#000000;fill-opacity:1;stroke:none;font-family:Sans"
         sodipodi:linespacing="125%"><tspan
           x="396.85049"
           y="1023.5439"
           id="tspan5386-9-8-2-1-3-7-7"
           style="font-size:11.99903488px">Linie:</tspan></text>
      <text
         transform="scale(0.99991951,1.0000805)"
         x="460.69931"
         y="1035.7036"
         id="text5384-0-4-1-4-1-8-1-4"
         xml:space="preserve"
         style="font-size:39.9967804px;font-style:normal;font-weight:normal;line-height:125%;letter-spacing:0px;word-spacing:0px;fill:#000000;fill-opacity:1;stroke:none;font-family:Sans"
         sodipodi:linespacing="125%"><tspan
           x="460.69931"
           y="1035.7036"
           id="tspan5386-9-8-2-1-3-7-7-0"
           style="font-size:11.99903488px">Gerät#:</tspan></text>
      <text
         transform="scale(0.99991951,1.0000805)"
         x="396.66956"
         y="1036.7839"
         id="text5384-0-4-1-4-1-8-1-4-9"
         xml:space="preserve"
         style="font-size:39.9967804px;font-style:normal;font-weight:normal;line-height:125%;letter-spacing:0px;word-spacing:0px;fill:#000000;fill-opacity:1;stroke:none;font-family:Sans"
         sodipodi:linespacing="125%"><tspan
           x="396.66956"
           y="1036.7839"
           id="tspan5386-9-8-2-1-3-7-7-0-4"
           style="font-size:11.99903488px">US#:</tspan></text>
      <g
         id="g3035"
         transform="matrix(0.40927912,0,0,0.42530814,595.55863,996.87352)">
        <path
           style="fill:#6db233;fill-opacity:1;fill-rule:nonzero;stroke:none"
           id="path3528"
           d="M 4.838,31.118 4.51,31.445 0,35.955 l 0,22.018 22.018,0 17.977,-17.978 0,-26.28 13.14,13.139 4.837,-4.836 0,-22.017 -22.017,0 -17.977,17.977 0,26.28 -13.14,-13.14 z m 26.28,22.017 0.329,0.328 4.508,4.51 22.017,0 0,-22.018 -14.963,-14.962 0,20.251 -11.891,11.891 z M 14.963,16.729 26.854,4.838 22.018,0 0,0 0,22.018 14.963,36.98 l 0,-20.251 z"
           inkscape:connector-curvature="0" />
        <path
           style="fill:#3e3e40;fill-opacity:1;fill-rule:nonzero;stroke:none"
           id="path3538"
           d="m 102.132,57.974 6.147,0 0,-28.989 -6.147,0 0,28.989 z M 88.353,45.083 88.065,46.24 83.078,28.985 l -4.53,0 -4.985,17.245 -4.226,-17.244 -6.325,0 7.73,28.988 5.025,0 5.047,-16.668 5.051,16.668 5.013,0 7.767,-28.988 -6.317,0 -3.975,16.097 z m 67.102,-13.81 c -1.98,-1.678 -4.728,-2.548 -8.728,-2.548 -4.582,0 -7.321,1.323 -9.813,3.593 l 4.128,4.092 c 1.391,-1.511 2.872,-2.155 5.459,-2.14 1.944,0 3.364,0.358 4.324,1.191 0.957,0.839 1.363,2.167 1.363,3.832 l -0.06,1.751 -7.076,0 c -6.573,0.04 -9.221,3.724 -9.25,8.285 0,2.564 0.701,4.759 2.167,6.312 1.647,1.689 3.779,2.784 6.986,2.784 2.918,0 5.224,-0.741 6.977,-2.781 l 0.379,-0.496 0,2.816 6.103,0 0,-19.126 c 0,-3.397 -0.976,-5.888 -2.952,-7.565 m -3.267,16.128 c 0,2.073 -0.403,3.173 -1.401,4.213 -1.219,1.271 -2.627,1.734 -4.671,1.734 l -0.03,0 c -1.48,0 -2.675,-0.429 -3.446,-1.209 -0.765,-0.778 -1.051,-1.66 -1.049,-2.758 0,-1.136 0.41,-2.078 1.226,-2.708 0.818,-0.629 1.949,-0.95 3.299,-0.95 l 6.067,0 0,1.678 z m -27.031,-6.567 0,0 -3.365,-0.483 c -1.127,-0.155 -2,-0.578 -2.515,-1.06 -0.538,-0.502 -0.761,-1.192 -0.757,-1.863 0,-1.807 1.298,-3.34 4.158,-3.35 1.864,0 3.948,0.236 5.674,1.895 l 0.178,0.167 3.885,-3.839 -0.183,-0.173 c -2.481,-2.407 -5.412,-3.397 -9.357,-3.403 0,0 -0.03,0 -0.04,0 -6.267,0.04 -10.166,3.681 -10.195,8.921 l 0,0 c 0,2.438 0.7,4.365 2.115,5.765 1.335,1.302 3.2,2.077 5.679,2.447 l 3.459,0.477 c 1.286,0.195 1.865,0.468 2.38,0.94 0.528,0.5 0.798,1.264 0.805,2.226 0,1.014 -0.394,1.86 -1.192,2.42 -0.861,0.604 -1.978,0.813 -3.607,0.849 -2.62,0 -4.934,-0.659 -6.665,-2.401 l -0.18,-0.175 -3.915,4.114 0.1,0.125 c 2.834,2.861 6.214,3.882 10.519,3.885 l 0.07,0 c 6.045,-0.02 10.794,-3.28 10.812,-8.98 0,-2.57 -0.695,-4.739 -2.281,-6.238 -1.25,-1.17 -2.957,-1.912 -5.587,-2.275 m 49.363,0.289 0,5.304 4.931,0 c 0,0 0,0.628 0,1.28 -0.04,1.372 -0.315,2.697 -1.241,3.691 -0.923,0.944 -1.872,1.484 -4.099,1.484 -1.552,0 -2.744,-0.547 -3.535,-1.41 -0.531,-0.54 -0.936,-1.437 -1.1,-2.424 -0.192,-1.155 -0.287,-2.741 -0.287,-5.523 0,-2.79 0.06,-4.471 0.284,-5.607 0.167,-0.854 0.572,-1.763 1.09,-2.296 0.804,-0.879 2.05,-1.455 3.604,-1.455 2.421,0 3.663,0.732 4.483,2.152 0.1,0.174 0.241,0.483 0.336,0.783 l 6.582,0 c -0.101,-0.685 -0.378,-1.528 -0.701,-2.267 -1.539,-3.523 -5.203,-6.228 -10.553,-6.228 -0.03,0 -0.133,0 -0.157,0 0,0 -0.04,0 -0.05,0 -3.765,0 -6.255,1.088 -8.408,3.261 -2.914,2.934 -3.067,6.315 -3.067,10.87 0,0.26 0,0.519 0,0.787 l 0,0.629 c 0,4.553 0.28,8.528 3.061,11.114 2.189,2.035 5.025,3.196 8.413,3.197 l 0.03,0 c 3.269,0 6.319,-0.933 8.734,-3.42 2.503,-2.582 2.866,-6.193 2.866,-9.926 l 0,-3.996 -11.211,0 z"
           inkscape:connector-curvature="0" />
      </g>
      <text
         transform="scale(0.99991951,1.0000805)"
         x="686.5647"
         y="1027.9672"
         id="text5384-0-4-1-4-1-8-1-8"
         xml:space="preserve"
         style="font-size:39.9967804px;font-style:normal;font-weight:normal;line-height:125%;letter-spacing:0px;word-spacing:0px;fill:#000000;fill-opacity:1;stroke:none;font-family:Sans"
         sodipodi:linespacing="125%"><tspan
           x="686.5647"
           y="1027.9672"
           id="tspan5386-9-8-2-1-3-7-7-8"
           style="font-size:11.99903488px">DateiName:</tspan></text>
      <text
         transform="scale(0.99991951,1.0000805)"
         x="755.08685"
         y="1028.3667"
         id="text5384-0-4-1-4-1-8-4"
         xml:space="preserve"
         style="font-size:39.9967804px;font-style:normal;font-weight:normal;line-height:125%;letter-spacing:0px;word-spacing:0px;fill:#000000;fill-opacity:1;stroke:none;font-family:Sans"
         sodipodi:linespacing="125%"><tspan
           x="755.08685"
           y="1028.3667"
           id="tspan5386-9-8-2-1-3-7-2"
           style="font-size:9.9991951px">${FILENAME}</tspan></text>
      <text
         transform="scale(0.99991951,1.0000805)"
         x="889.41583"
         y="1020.9672"
         id="text5384-0-4-1-4-1-8-1-8-2-5"
         xml:space="preserve"
         style="font-size:39.9967804px;font-style:normal;font-weight:normal;line-height:125%;letter-spacing:0px;word-spacing:0px;fill:#000000;fill-opacity:1;stroke:none;font-family:Sans"
         sodipodi:linespacing="125%"><tspan
           x="889.41583"
           y="1020.9672"
           id="tspan5386-9-8-2-1-3-7-7-8-4-5"
           style="font-size:11.99903488px">Seite:</tspan></text>
      <text
         transform="scale(0.99991951,1.0000805)"
         x="920.96143"
         y="1020.7913"
         id="text5384-0-4-1-4-1-8-4-7-9-1"
         xml:space="preserve"
         style="font-size:39.9967804px;font-style:normal;font-weight:normal;line-height:125%;letter-spacing:0px;word-spacing:0px;fill:#000000;fill-opacity:1;stroke:none;font-family:Sans"
         sodipodi:linespacing="125%"><tspan
           x="920.96143"
           y="1020.7913"
           id="tspan5386-9-8-2-1-3-7-2-7-3-9"
           style="font-size:9.9991951px">${PAGE::PAGENUMBER}</tspan></text>
      <text
         transform="scale(0.99991951,1.0000805)"
         x="889.64825"
         y="1036.6232"
         id="text5384-0-4-1-4-1-8-1-8-2"
         xml:space="preserve"
         style="font-size:39.9967804px;font-style:normal;font-weight:normal;line-height:125%;letter-spacing:0px;word-spacing:0px;fill:#000000;fill-opacity:1;stroke:none;font-family:Sans"
         sodipodi:linespacing="125%"><tspan
           x="889.64825"
           y="1036.6232"
           id="tspan5386-9-8-2-1-3-7-7-8-4"
           style="font-size:11.99903488px">SeitenAnzahl:</tspan><tspan
           x="889.64825"
           y="1036.6232"
           style="font-size:11.99903488px"
           id="tspan3188" /></text>
      <text
         transform="scale(0.99991951,1.0000805)"
         x="965.74854"
         y="1035.9423"
         id="text5384-0-4-1-4-1-8-4-7-9"
         xml:space="preserve"
         style="font-size:39.9967804px;font-style:normal;font-weight:normal;line-height:125%;letter-spacing:0px;word-spacing:0px;fill:#000000;fill-opacity:1;stroke:none;font-family:Sans"
         sodipodi:linespacing="125%"><tspan
           x="965.74854"
           y="1035.9423"
           id="tspan5386-9-8-2-1-3-7-2-7-3"
           style="font-size:9.9991951px">${PAGECOUNT}</tspan></text>
    </g>
  </g>
</svg>
