<?xml version="1.0" encoding="UTF-8" standalone="no"?>
<svg
   xmlns:dc="http://purl.org/dc/elements/1.1/"
   xmlns:cc="http://creativecommons.org/ns#"
   xmlns:rdf="http://www.w3.org/1999/02/22-rdf-syntax-ns#"
   xmlns:svg="http://www.w3.org/2000/svg"
   xmlns="http://www.w3.org/2000/svg"
   xmlns:sodipodi="http://sodipodi.sourceforge.net/DTD/sodipodi-0.dtd"
   xmlns:inkscape="http://www.inkscape.org/namespaces/inkscape"
   stroke-dasharray="none"
   shape-rendering="auto"
   font-family="'Dialog'"
   width="891"
   text-rendering="auto"
   fill-opacity="1"
   contentScriptType="text/ecmascript"
   color-interpolation="auto"
   color-rendering="auto"
   preserveAspectRatio="xMidYMid meet"
   font-size="12"
   viewBox="0 0 891 423"
   fill="black"
   stroke="black"
   image-rendering="auto"
   stroke-miterlimit="10"
   zoomAndPan="magnify"
   version="1.0"
   stroke-linecap="square"
   stroke-linejoin="miter"
   contentStyleType="text/css"
   font-style="normal"
   height="423"
   stroke-width="1"
   stroke-dashoffset="0"
   font-weight="normal"
   stroke-opacity="1"
   id="svg3360"
   inkscape:version="0.48.3.1 r9886"
   sodipodi:docname="collection_org.svg">
  <metadata
     id="metadata3733">
    <rdf:RDF>
      <cc:Work
         rdf:about="">
        <dc:format>image/svg+xml</dc:format>
        <dc:type
           rdf:resource="http://purl.org/dc/dcmitype/StillImage" />
        <dc:title></dc:title>
      </cc:Work>
    </rdf:RDF>
  </metadata>
  <sodipodi:namedview
     pagecolor="#ffffff"
     bordercolor="#666666"
     borderopacity="1"
     objecttolerance="10"
     gridtolerance="10"
     guidetolerance="10"
     inkscape:pageopacity="0"
     inkscape:pageshadow="2"
     inkscape:window-width="1600"
     inkscape:window-height="848"
     id="namedview3731"
     showgrid="false"
     showguides="true"
     inkscape:guide-bbox="true"
     inkscape:zoom="1.1110544"
     inkscape:cx="434.85861"
     inkscape:cy="222.46089"
     inkscape:window-x="-8"
     inkscape:window-y="-8"
     inkscape:window-maximized="1"
     inkscape:current-layer="svg3360" />
  <!--Generated by the Batik Graphics2D SVG Generator-->
  <defs
     id="genericDefs">
    <defs
       id="defs1">
      <clipPath
         id="clipPath1"
         clipPathUnits="userSpaceOnUse">
        <path
           id="path3367"
           d="M123 77 L218 77 L218 156 L123 156 L123 77 Z" />
      </clipPath>
      <clipPath
         id="clipPath2"
         clipPathUnits="userSpaceOnUse">
        <path
           id="path3370"
           d="M126 99 L168 99 L168 117 L126 117 L126 99 Z" />
      </clipPath>
      <clipPath
         id="clipPath3"
         clipPathUnits="userSpaceOnUse">
        <path
           id="path3373"
           d="M205 99 L215 99 L215 117 L205 117 L205 99 Z" />
      </clipPath>
      <clipPath
         id="clipPath4"
         clipPathUnits="userSpaceOnUse">
        <path
           id="path3376"
           d="M187 118 L215 118 L215 136 L187 136 L187 118 Z" />
      </clipPath>
      <clipPath
         id="clipPath5"
         clipPathUnits="userSpaceOnUse">
        <path
           id="path3379"
           d="M127 79 L214 79 L214 98 L127 98 L127 79 Z" />
      </clipPath>
      <clipPath
         id="clipPath6"
         clipPathUnits="userSpaceOnUse">
        <path
           id="path3382"
           d="M207 137 L217 137 L217 156 L207 156 L207 137 Z" />
      </clipPath>
      <clipPath
         id="clipPath7"
         clipPathUnits="userSpaceOnUse">
        <path
           id="path3385"
           d="M8 95 L70 95 L70 121 L8 121 L8 95 Z" />
      </clipPath>
      <clipPath
         id="clipPath8"
         clipPathUnits="userSpaceOnUse">
        <path
           id="path3388"
           d="M12 99 L66 99 L66 118 L12 118 L12 99 Z" />
      </clipPath>
      <clipPath
         id="clipPath9"
         clipPathUnits="userSpaceOnUse">
        <path
           id="path3391"
           d="M331 53 L375 53 L375 79 L331 79 L331 53 Z" />
      </clipPath>
      <clipPath
         id="clipPath10"
         clipPathUnits="userSpaceOnUse">
        <path
           id="path3394"
           d="M335 57 L364 57 L364 76 L335 76 L335 57 Z" />
      </clipPath>
      <clipPath
         id="clipPath11"
         clipPathUnits="userSpaceOnUse">
        <path
           id="path3397"
           d="M730 111 L882 111 L882 209 L730 209 L730 111 Z" />
      </clipPath>
      <clipPath
         id="clipPath12"
         clipPathUnits="userSpaceOnUse">
        <path
           id="path3400"
           d="M733 133 L804 133 L804 151 L733 151 L733 133 Z" />
      </clipPath>
      <clipPath
         id="clipPath13"
         clipPathUnits="userSpaceOnUse">
        <path
           id="path3403"
           d="M733 152 L771 152 L771 170 L733 170 L733 152 Z" />
      </clipPath>
      <clipPath
         id="clipPath14"
         clipPathUnits="userSpaceOnUse">
        <path
           id="path3406"
           d="M733 170 L775 170 L775 188 L733 188 L733 170 Z" />
      </clipPath>
      <clipPath
         id="clipPath15"
         clipPathUnits="userSpaceOnUse">
        <path
           id="path3409"
           d="M851 133 L879 133 L879 151 L851 151 L851 133 Z" />
      </clipPath>
      <clipPath
         id="clipPath16"
         clipPathUnits="userSpaceOnUse">
        <path
           id="path3412"
           d="M734 113 L879 113 L879 132 L734 132 L734 113 Z" />
      </clipPath>
      <clipPath
         id="clipPath17"
         clipPathUnits="userSpaceOnUse">
        <path
           id="path3415"
           d="M872 189 L882 189 L882 208 L872 208 L872 189 Z" />
      </clipPath>
      <clipPath
         id="clipPath18"
         clipPathUnits="userSpaceOnUse">
        <path
           id="path3418"
           d="M12 148 L67 148 L67 174 L12 174 L12 148 Z" />
      </clipPath>
      <clipPath
         id="clipPath19"
         clipPathUnits="userSpaceOnUse">
        <path
           id="path3421"
           d="M16 152 L64 152 L64 171 L16 171 L16 152 Z" />
      </clipPath>
      <clipPath
         id="clipPath20"
         clipPathUnits="userSpaceOnUse">
        <path
           id="path3424"
           d="M17 14 L62 14 L62 40 L17 40 L17 14 Z" />
      </clipPath>
      <clipPath
         id="clipPath21"
         clipPathUnits="userSpaceOnUse">
        <path
           id="path3427"
           d="M21 17 L50 17 L50 36 L21 36 L21 17 Z" />
      </clipPath>
      <clipPath
         id="clipPath22"
         clipPathUnits="userSpaceOnUse">
        <path
           id="path3430"
           d="M395 253 L465 253 L465 350 L395 350 L395 253 Z" />
      </clipPath>
      <clipPath
         id="clipPath23"
         clipPathUnits="userSpaceOnUse">
        <path
           id="path3433"
           d="M398 275 L428 275 L428 292 L398 292 L398 275 Z" />
      </clipPath>
      <clipPath
         id="clipPath24"
         clipPathUnits="userSpaceOnUse">
        <path
           id="path3436"
           d="M398 293 L428 293 L428 311 L398 311 L398 293 Z" />
      </clipPath>
      <clipPath
         id="clipPath25"
         clipPathUnits="userSpaceOnUse">
        <path
           id="path3439"
           d="M398 312 L428 312 L428 330 L398 330 L398 312 Z" />
      </clipPath>
      <clipPath
         id="clipPath26"
         clipPathUnits="userSpaceOnUse">
        <path
           id="path3442"
           d="M398 255 L461 255 L461 274 L398 274 L398 255 Z" />
      </clipPath>
      <clipPath
         id="clipPath27"
         clipPathUnits="userSpaceOnUse">
        <path
           id="path3445"
           d="M452 275 L462 275 L462 292 L452 292 L452 275 Z" />
      </clipPath>
      <clipPath
         id="clipPath28"
         clipPathUnits="userSpaceOnUse">
        <path
           id="path3448"
           d="M455 331 L465 331 L465 350 L455 350 L455 331 Z" />
      </clipPath>
      <clipPath
         id="clipPath29"
         clipPathUnits="userSpaceOnUse">
        <path
           id="path3451"
           d="M650 317 L802 317 L802 414 L650 414 L650 317 Z" />
      </clipPath>
      <clipPath
         id="clipPath30"
         clipPathUnits="userSpaceOnUse">
        <path
           id="path3454"
           d="M653 338 L724 338 L724 356 L653 356 L653 338 Z" />
      </clipPath>
      <clipPath
         id="clipPath31"
         clipPathUnits="userSpaceOnUse">
        <path
           id="path3457"
           d="M653 357 L691 357 L691 375 L653 375 L653 357 Z" />
      </clipPath>
      <clipPath
         id="clipPath32"
         clipPathUnits="userSpaceOnUse">
        <path
           id="path3460"
           d="M653 376 L695 376 L695 394 L653 394 L653 376 Z" />
      </clipPath>
      <clipPath
         id="clipPath33"
         clipPathUnits="userSpaceOnUse">
        <path
           id="path3463"
           d="M771 338 L799 338 L799 356 L771 356 L771 338 Z" />
      </clipPath>
      <clipPath
         id="clipPath34"
         clipPathUnits="userSpaceOnUse">
        <path
           id="path3466"
           d="M654 319 L798 319 L798 338 L654 338 L654 319 Z" />
      </clipPath>
      <clipPath
         id="clipPath35"
         clipPathUnits="userSpaceOnUse">
        <path
           id="path3469"
           d="M792 395 L802 395 L802 414 L792 414 L792 395 Z" />
      </clipPath>
      <clipPath
         id="clipPath36"
         clipPathUnits="userSpaceOnUse">
        <path
           id="path3472"
           d="M12 372 L67 372 L67 399 L12 399 L12 372 Z" />
      </clipPath>
      <clipPath
         id="clipPath37"
         clipPathUnits="userSpaceOnUse">
        <path
           id="path3475"
           d="M16 376 L63 376 L63 395 L16 395 L16 376 Z" />
      </clipPath>
      <clipPath
         id="clipPath38"
         clipPathUnits="userSpaceOnUse">
        <path
           id="path3478"
           d="M12 208 L67 208 L67 234 L12 234 L12 208 Z" />
      </clipPath>
      <clipPath
         id="clipPath39"
         clipPathUnits="userSpaceOnUse">
        <path
           id="path3481"
           d="M16 211 L64 211 L64 230 L16 230 L16 211 Z" />
      </clipPath>
      <clipPath
         id="clipPath40"
         clipPathUnits="userSpaceOnUse">
        <path
           id="path3484"
           d="M-1 -1 L892 -1 L892 424 L-1 424 L-1 -1 Z" />
      </clipPath>
      <clipPath
         id="clipPath41"
         clipPathUnits="userSpaceOnUse">
        <path
           id="path3487"
           d="M117 104 L126 104 L126 113 L117 113 L117 104 Z" />
      </clipPath>
      <clipPath
         id="clipPath42"
         clipPathUnits="userSpaceOnUse">
        <path
           id="path3490"
           d="M324 62 L334 62 L334 71 L324 71 L324 62 Z" />
      </clipPath>
      <clipPath
         id="clipPath43"
         clipPathUnits="userSpaceOnUse">
        <path
           id="path3493"
           d="M723 156 L733 156 L733 165 L723 165 L723 156 Z" />
      </clipPath>
      <clipPath
         id="clipPath44"
         clipPathUnits="userSpaceOnUse">
        <path
           id="path3496"
           d="M723 137 L733 137 L733 146 L723 146 L723 137 Z" />
      </clipPath>
      <clipPath
         id="clipPath45"
         clipPathUnits="userSpaceOnUse">
        <path
           id="path3499"
           d="M388 279 L398 279 L398 288 L388 288 L388 279 Z" />
      </clipPath>
      <clipPath
         id="clipPath46"
         clipPathUnits="userSpaceOnUse">
        <path
           id="path3502"
           d="M388 298 L398 298 L398 307 L388 307 L388 298 Z" />
      </clipPath>
      <clipPath
         id="clipPath47"
         clipPathUnits="userSpaceOnUse">
        <path
           id="path3505"
           d="M388 317 L398 317 L398 325 L388 325 L388 317 Z" />
      </clipPath>
      <clipPath
         id="clipPath48"
         clipPathUnits="userSpaceOnUse">
        <path
           id="path3508"
           d="M643 343 L653 343 L653 352 L643 352 L643 343 Z" />
      </clipPath>
      <clipPath
         id="clipPath49"
         clipPathUnits="userSpaceOnUse">
        <path
           id="path3511"
           d="M643 362 L653 362 L653 371 L643 371 L643 362 Z" />
      </clipPath>
      <clipPath
         id="clipPath50"
         clipPathUnits="userSpaceOnUse">
        <path
           id="path3514"
           d="M643 380 L653 380 L653 389 L643 389 L643 380 Z" />
      </clipPath>
      <clipPath
         id="clipPath51"
         clipPathUnits="userSpaceOnUse">
        <path
           id="path3517"
           d="M723 175 L733 175 L733 184 L723 184 L723 175 Z" />
      </clipPath>
    </defs>
    <clipPath
       id="clipPath40-1"
       clipPathUnits="userSpaceOnUse">
      <path
         inkscape:connector-curvature="0"
         id="path3484-7"
         d="m -1,-1 893,0 0,425 -893,0 0,-425 z" />
    </clipPath>
  </defs>
  <line
     clip-path="url(#clipPath40)"
     x1="65"
     x2="398"
     y1="161"
     y2="161"
     id="line3641"
     style="fill:none;stroke:#0000d7;stroke-width:2.06539989;stroke-linecap:butt;stroke-opacity:1;font-family:Segoe UI"
     transform="matrix(0.55871182,0,0,1,126.85052,-6.3003219)" />
  <path
     style="fill:#35ff00;fill-opacity:1;stroke:#00ef00;stroke-width:4.03070021;stroke-linecap:butt;stroke-opacity:1;font-family:Segoe UI"
     clip-path="url(#clipPath40)"
     d="m 60,26 335,0"
     id="line3651"
     inkscape:connector-curvature="0"
     transform="matrix(0.56652396,0,0,1,126.3409,18.000918)" />
  <line
     transform="matrix(0.55871182,0,0,1.936671,126.85052,-132.78372)"
     clip-path="url(#clipPath40-1)"
     x1="65"
     x2="398"
     y1="161"
     y2="161"
     id="line3641-4"
     style="fill:none;stroke:#0000d7;stroke-width:2.87429976;stroke-linecap:butt;stroke-miterlimit:10;stroke-opacity:1;stroke-dasharray:none;font-family:Segoe UI" />
  <text
     xml:space="preserve"
     style="font-size:40px;font-style:normal;font-weight:normal;line-height:125%;letter-spacing:0px;word-spacing:0px;fill:#000000;fill-opacity:1;stroke:none;font-family:Sans"
     x="32.401653"
     y="54.881222"
     id="text4915"
     sodipodi:linespacing="125%"><tspan
       sodipodi:role="line"
       id="tspan4917"
       x="32.401653"
       y="54.881222">Analog</tspan></text>
  <text
     xml:space="preserve"
     style="font-size:40px;font-style:normal;font-weight:normal;line-height:125%;letter-spacing:0px;word-spacing:0px;fill:#000000;fill-opacity:1;stroke:none;font-family:Sans"
     x="32.401653"
     y="176.38742"
     id="text4919"
     sodipodi:linespacing="125%"><tspan
       sodipodi:role="line"
       id="tspan4921"
       x="32.401653"
       y="176.38742">Digital</tspan></text>
  <text
     xml:space="preserve"
     style="font-size:40px;font-style:normal;font-weight:normal;line-height:125%;letter-spacing:0px;word-spacing:0px;fill:#000000;fill-opacity:1;stroke:none;font-family:Sans"
     x="147.40762"
     y="161.08664"
     id="text4927"
     sodipodi:linespacing="125%"><tspan
       sodipodi:role="line"
       id="tspan4929"
       x="147.40762"
       y="161.08664"
       style="font-size:20px">0</tspan></text>
  <text
     xml:space="preserve"
     style="font-size:40px;font-style:normal;font-weight:normal;line-height:125%;letter-spacing:0px;word-spacing:0px;fill:#000000;fill-opacity:1;stroke:none;font-family:Sans"
     x="146.20988"
     y="185.65276"
     id="text4927-0"
     sodipodi:linespacing="125%"><tspan
       sodipodi:role="line"
       id="tspan4929-9"
       x="146.20988"
       y="185.65276"
       style="font-size:20px">1</tspan></text>
</svg>
