<?xml version="1.0" encoding="UTF-8" standalone="no"?>
<!-- Created with Inkscape (http://www.inkscape.org/) -->
<!-- tralala-->
<svg
   xmlns:dc="http://purl.org/dc/elements/1.1/"
   xmlns:cc="http://creativecommons.org/ns#"
   xmlns:rdf="http://www.w3.org/1999/02/22-rdf-syntax-ns#"
   xmlns:svg="http://www.w3.org/2000/svg"
   xmlns="http://www.w3.org/2000/svg"
   xmlns:sodipodi="http://sodipodi.sourceforge.net/DTD/sodipodi-0.dtd"
   xmlns:inkscape="http://www.inkscape.org/namespaces/inkscape"
   width="1488.189"
   height="1052.3622"
   id="svg2"
   version="1.1"
   inkscape:version="0.48.4 r9939"
   sodipodi:docname="template_a3.svg">
  <defs
     id="defs4" />
  <sodipodi:namedview
     id="base"
     pagecolor="#ffffff"
     bordercolor="#666666"
     borderopacity="1.0"
     inkscape:pageopacity="0.0"
     inkscape:pageshadow="2"
     inkscape:zoom="3.959798"
     inkscape:cx="661.23086"
     inkscape:cy="58.1429"
     inkscape:document-units="mm"
     inkscape:current-layer="g3544"
     showgrid="false"
     inkscape:window-width="1655"
     inkscape:window-height="961"
     inkscape:window-x="128"
     inkscape:window-y="16"
     inkscape:window-maximized="0"
     units="pt"
     showguides="true"
     inkscape:guide-bbox="true">
    <sodipodi:guide
       orientation="1,0"
       position="16.428571,123.57143"
       id="guide3603" />
    <sodipodi:guide
       orientation="1,0"
       position="1476.0714,96.964286"
       id="guide3605" />
  </sodipodi:namedview>
  <metadata
     id="metadata7">
    <rdf:RDF>
      <cc:Work
         rdf:about="">
        <dc:format>image/svg+xml</dc:format>
        <dc:type
           rdf:resource="http://purl.org/dc/dcmitype/StillImage" />
        <dc:title />
      </cc:Work>
    </rdf:RDF>
  </metadata>
  <g
     inkscape:label="Ebene 1"
     inkscape:groupmode="layer"
     id="layer1"
     transform="translate(0,2.988066e-5)">
    <rect
       style="fill:none;stroke:#000000;stroke-width:2.46333003;stroke-miterlimit:10;stroke-opacity:1;stroke-dasharray:none"
       id="DRAWING_AREA"
       width="1459.8737"
       height="937.53668"
       x="16.277222"
       y="22.26255"
       inkscape:label="#rect3821" />
    <g
       id="g3544"
       transform="matrix(1.0016063,0,0,1,1.2522473,0)">
      <g
         transform="matrix(1.4231434,0,0,1,-28.962309,191.55969)"
         id="g5365">
        <rect
           width="1024"
           height="64.702789"
           x="31.000042"
           y="781.72333"
           id="rect5054-1"
           style="fill:none;stroke:#000000;stroke-width:1.64462781;stroke-miterlimit:4;stroke-opacity:1;stroke-dasharray:none" />
        <path
           d="m 30.999916,797.12749 225.000004,0"
           id="path5320"
           style="fill:none;stroke:#000000;stroke-width:1px;stroke-linecap:butt;stroke-linejoin:miter;stroke-opacity:1"
           inkscape:connector-curvature="0" />
        <path
           d="M 30.999916,815.51227 255.99992,813.39095"
           id="path5322"
           style="fill:none;stroke:#000000;stroke-width:1px;stroke-linecap:butt;stroke-linejoin:miter;stroke-opacity:1"
           inkscape:connector-curvature="0" />
        <path
           d="m 30.999916,830.36151 225.000004,0"
           id="path5324"
           style="fill:none;stroke:#000000;stroke-width:1px;stroke-linecap:butt;stroke-linejoin:miter;stroke-opacity:1"
           inkscape:connector-curvature="0" />
        <path
           d="M 696.99992,813.39095 1055,814.09806"
           id="path5326"
           style="fill:none;stroke:#000000;stroke-width:1px;stroke-linecap:butt;stroke-linejoin:miter;stroke-opacity:1"
           inkscape:connector-curvature="0" />
        <path
           d="m 901.5,829.6544 153.5,0"
           id="path5330"
           style="fill:none;stroke:#000000;stroke-width:0.99790227px;stroke-linecap:butt;stroke-linejoin:miter;stroke-opacity:1"
           inkscape:connector-curvature="0" />
        <path
           d="m 132.93607,846.62497 0,-64.34672"
           id="path5342"
           style="fill:none;stroke:#000000;stroke-width:1px;stroke-linecap:butt;stroke-linejoin:miter;stroke-opacity:1"
           inkscape:connector-curvature="0" />
        <path
           d="m 183.84776,847.33207 0,-65.05382"
           id="path5344"
           style="fill:none;stroke:#000000;stroke-width:1px;stroke-linecap:butt;stroke-linejoin:miter;stroke-opacity:1"
           inkscape:connector-curvature="0" />
        <path
           d="m 697,781.84448 0,64.5"
           id="path5351"
           style="fill:none;stroke:#000000;stroke-width:1px;stroke-linecap:butt;stroke-linejoin:miter;stroke-opacity:1"
           inkscape:connector-curvature="0" />
        <path
           d="m 409.25,781.84448 0,64.5"
           id="path5355"
           style="fill:none;stroke:#000000;stroke-width:1px;stroke-linecap:butt;stroke-linejoin:miter;stroke-opacity:1"
           inkscape:connector-curvature="0" />
        <path
           d="m 256,781.59448 0,65"
           id="path5359"
           style="fill:none;stroke:#000000;stroke-width:1px;stroke-linecap:butt;stroke-linejoin:miter;stroke-opacity:1"
           inkscape:connector-curvature="0" />
        <path
           d="m 901.5,781.59448 0,64.5"
           id="path5363"
           style="fill:none;stroke:#000000;stroke-width:1px;stroke-linecap:butt;stroke-linejoin:miter;stroke-opacity:1"
           inkscape:connector-curvature="0" />
      </g>
      <text
         x="22.993938"
         y="984.88635"
         id="text5384"
         xml:space="preserve"
         style="font-size:40px;font-style:normal;font-weight:normal;line-height:125%;letter-spacing:0px;word-spacing:0px;fill:#000000;fill-opacity:1;stroke:none;font-family:Sans"
         sodipodi:linespacing="125%"><tspan
           x="22.993938"
           y="984.88635"
           id="tspan5386"
           style="font-size:12px">Ausgabedatum</tspan></text>
      <text
         x="177.41873"
         y="985.45056"
         id="text5384-0"
         xml:space="preserve"
         style="font-size:40px;font-style:normal;font-weight:normal;line-height:125%;letter-spacing:0px;word-spacing:0px;fill:#000000;fill-opacity:1;stroke:none;font-family:Sans"
         sodipodi:linespacing="125%"><tspan
           x="177.41873"
           y="985.45056"
           id="tspan5386-9"
           style="font-size:12px">Name</tspan></text>
      <text
         x="258.23212"
         y="984.87512"
         id="text5384-0-4"
         xml:space="preserve"
         style="font-size:40px;font-style:normal;font-weight:normal;line-height:125%;letter-spacing:0px;word-spacing:0px;fill:#000000;fill-opacity:1;stroke:none;font-family:Sans"
         sodipodi:linespacing="125%"><tspan
           x="258.23212"
           y="984.87512"
           id="tspan5386-9-8"
           style="font-size:12px">Geprüft</tspan></text>
      <text
         x="245.85956"
         y="1000.0649"
         id="text5384-8-5-7-1"
         xml:space="preserve"
         style="font-size:40px;font-style:normal;font-weight:normal;line-height:125%;letter-spacing:0px;word-spacing:0px;fill:#000000;fill-opacity:1;stroke:none;font-family:Sans"
         sodipodi:linespacing="125%"><tspan
           x="245.85956"
           y="1000.0649"
           id="tspan5386-2-1-6-4"
           style="font-size:8px">${MODULE::examiner}</tspan></text>
      <text
         x="345.88327"
         y="986.51569"
         id="text5384-0-4-1"
         xml:space="preserve"
         style="font-size:40px;font-style:normal;font-weight:normal;line-height:125%;letter-spacing:0px;word-spacing:0px;fill:#000000;fill-opacity:1;stroke:none;font-family:Sans"
         sodipodi:linespacing="125%"><tspan
           x="345.88327"
           y="986.51569"
           id="tspan5386-9-8-2"
           style="font-size:12px">Planersteller</tspan></text>
      <text
         x="573.37286"
         y="986.39661"
         id="text5384-0-4-1-3"
         xml:space="preserve"
         style="font-size:40px;font-style:normal;font-weight:normal;line-height:125%;letter-spacing:0px;word-spacing:0px;fill:#000000;fill-opacity:1;stroke:none;font-family:Sans"
         sodipodi:linespacing="125%"><tspan
           x="573.37286"
           y="986.39661"
           id="tspan5386-9-8-2-3"
           style="font-size:12px">Projekt</tspan></text>
      <text
         x="344.34747"
         y="1001.7997"
         id="text5384-0-4-1-4"
         xml:space="preserve"
         style="font-size:40px;font-style:normal;font-weight:normal;line-height:125%;letter-spacing:0px;word-spacing:0px;fill:#000000;fill-opacity:1;stroke:none;font-family:Sans"
         sodipodi:linespacing="125%"><tspan
           x="344.34747"
           y="1001.7997"
           id="tspan5386-9-8-2-1"
           style="font-size:10px">${MODULE::processor}</tspan></text>
      <text
         x="613.93695"
         y="986.77454"
         id="text5384-0-4-1-4-1"
         xml:space="preserve"
         style="font-size:40px;font-style:normal;font-weight:normal;line-height:125%;letter-spacing:0px;word-spacing:0px;fill:#000000;fill-opacity:1;stroke:none;font-family:Sans"
         sodipodi:linespacing="125%"><tspan
           x="613.93695"
           y="986.77454"
           id="tspan5386-9-8-2-1-3"
           style="font-size:12px">${PROJECTNAME}</tspan></text>
      <text
         x="979.40253"
         y="986.95135"
         id="text5384-0-4-1-4-1-8"
         xml:space="preserve"
         style="font-size:40px;font-style:normal;font-weight:normal;line-height:125%;letter-spacing:0px;word-spacing:0px;fill:#000000;fill-opacity:1;stroke:none;font-family:Sans"
         sodipodi:linespacing="125%"><tspan
           x="979.40253"
           y="986.95135"
           id="tspan5386-9-8-2-1-3-7"
           style="font-size:12px">Informationsschwerpunkt</tspan></text>
      <text
         x="1043.2476"
         y="1024.6746"
         id="text5384-0-4-1-4-1-8-4"
         xml:space="preserve"
         style="font-size:40px;font-style:normal;font-weight:normal;line-height:125%;letter-spacing:0px;word-spacing:0px;fill:#000000;fill-opacity:1;stroke:none;font-family:Sans"
         sodipodi:linespacing="125%"><tspan
           x="1043.2476"
           y="1024.6746"
           id="tspan5386-9-8-2-1-3-7-2"
           style="font-size:10px">${FILENAME}</tspan></text>
      <text
         x="1346.5082"
         y="1032.2"
         id="text5384-0-4-1-4-1-8-4-7-9"
         xml:space="preserve"
         style="font-size:40px;font-style:normal;font-weight:normal;line-height:125%;letter-spacing:0px;word-spacing:0px;fill:#000000;fill-opacity:1;stroke:none;font-family:Sans"
         sodipodi:linespacing="125%"><tspan
           x="1346.5082"
           y="1032.2"
           id="tspan5386-9-8-2-1-3-7-2-7-3"
           style="font-size:10px">${PAGECOUNT}</tspan></text>
      <text
         x="1345.9587"
         y="1017.0982"
         id="text5384-0-4-1-4-1-8-4-7-9-1"
         xml:space="preserve"
         style="font-size:40px;font-style:normal;font-weight:normal;line-height:125%;letter-spacing:0px;word-spacing:0px;fill:#000000;fill-opacity:1;stroke:none;font-family:Sans"
         sodipodi:linespacing="125%"><tspan
           x="1345.9587"
           y="1017.0982"
           id="tspan5386-9-8-2-1-3-7-2-7-3-9"
           style="font-size:10px">${PAGE::PAGENUMBER}</tspan></text>
      <text
         x="15.151985"
         y="1000.7467"
         id="text5384-0-4-1-4-17"
         xml:space="preserve"
         style="font-size:40px;font-style:normal;font-weight:normal;line-height:125%;letter-spacing:0px;word-spacing:0px;fill:#000000;fill-opacity:1;stroke:none;font-family:Sans"
         sodipodi:linespacing="125%"><tspan
           x="15.151985"
           y="1000.7467"
           id="tspan5386-9-8-2-1-4"
           style="font-size:10px">${MODULE::createdDate}</tspan></text>
      <text
         x="617.60309"
         y="1000.8627"
         id="text5384-0-4-1-4-17-0"
         xml:space="preserve"
         style="font-size:8px;font-style:normal;font-weight:normal;line-height:125%;letter-spacing:0px;word-spacing:0px;fill:#000000;fill-opacity:1;stroke:none;font-family:Sans"
         sodipodi:linespacing="125%"><tspan
           x="617.60309"
           y="1000.8627"
           id="tspan5386-9-8-2-1-4-9"
           style="font-size:8px">${MODULE::kind}</tspan></text>
      <text
         x="617.36542"
         y="1009.8986"
         id="text5384-0-4-1-4-17-0-4"
         xml:space="preserve"
         style="font-size:8px;font-style:normal;font-weight:normal;line-height:125%;letter-spacing:0px;word-spacing:0px;fill:#000000;fill-opacity:1;stroke:none;font-family:Sans"
         sodipodi:linespacing="125%"><tspan
           x="617.36542"
           y="1009.8986"
           id="tspan5386-9-8-2-1-4-9-8"
           style="font-size:8px">${MODULE::name}</tspan></text>
      <text
         x="593.84253"
         y="1020.946"
         id="text5384-0-4-1-4-17-0-4-8"
         xml:space="preserve"
         style="font-size:8px;font-style:normal;font-weight:normal;line-height:125%;letter-spacing:0px;word-spacing:0px;fill:#000000;fill-opacity:1;stroke:none;font-family:Sans"
         sodipodi:linespacing="125%"><tspan
           x="593.84253"
           y="1020.946"
           id="tspan5386-9-8-2-1-4-9-8-2"
           style="font-size:8px">${MODULE::lineNumber}</tspan></text>
      <text
         x="594.05634"
         y="1032.5436"
         id="text5384-0-4-1-4-17-0-4-8-4"
         xml:space="preserve"
         style="font-size:8px;font-style:normal;font-weight:normal;line-height:125%;letter-spacing:0px;word-spacing:0px;fill:#000000;fill-opacity:1;stroke:none;font-family:Sans"
         sodipodi:linespacing="125%"><tspan
           x="594.05634"
           y="1032.5436"
           id="tspan5386-9-8-2-1-4-9-8-2-5"
           style="font-size:8px">${MODULE::stationNumber}</tspan></text>
      <text
         transform="scale(0.98728524,1.0128785)"
         x="678.44971"
         y="1018.293"
         id="text5384-0-4-1-4-17-0-4-8-4-5"
         xml:space="preserve"
         style="font-size:7.89828157px;font-style:normal;font-weight:normal;line-height:125%;letter-spacing:0px;word-spacing:0px;fill:#000000;fill-opacity:1;stroke:none;font-family:Sans"
         sodipodi:linespacing="125%"><tspan
           x="678.44971"
           y="1018.293"
           id="tspan5386-9-8-2-1-4-9-8-2-5-1"
           style="font-size:7.89828157px">${MODULE::fieldBusNumber}</tspan></text>
      <g
         id="g3035"
         transform="matrix(0.59260298,0,0,0.57651306,839.79648,986.51943)">
        <path
           style="fill:#6db233;fill-opacity:1;fill-rule:nonzero;stroke:none"
           id="path3528"
           d="M 4.838,31.118 4.51,31.445 0,35.955 l 0,22.018 22.018,0 17.977,-17.978 0,-26.28 13.14,13.139 4.837,-4.836 0,-22.017 -22.017,0 -17.977,17.977 0,26.28 -13.14,-13.14 z m 26.28,22.017 0.329,0.328 4.508,4.51 22.017,0 0,-22.018 -14.963,-14.962 0,20.251 -11.891,11.891 z M 14.963,16.729 26.854,4.838 22.018,0 0,0 0,22.018 14.963,36.98 l 0,-20.251 z"
           inkscape:connector-curvature="0" />
        <path
           style="fill:#3e3e40;fill-opacity:1;fill-rule:nonzero;stroke:none"
           id="path3538"
           d="m 102.132,57.974 6.147,0 0,-28.989 -6.147,0 0,28.989 z M 88.353,45.083 88.065,46.24 83.078,28.985 l -4.53,0 -4.985,17.245 -4.226,-17.244 -6.325,0 7.73,28.988 5.025,0 5.047,-16.668 5.051,16.668 5.013,0 7.767,-28.988 -6.317,0 -3.975,16.097 z m 67.102,-13.81 c -1.98,-1.678 -4.728,-2.548 -8.728,-2.548 -4.582,0 -7.321,1.323 -9.813,3.593 l 4.128,4.092 c 1.391,-1.511 2.872,-2.155 5.459,-2.14 1.944,0 3.364,0.358 4.324,1.191 0.957,0.839 1.363,2.167 1.363,3.832 l -0.06,1.751 -7.076,0 c -6.573,0.04 -9.221,3.724 -9.25,8.285 0,2.564 0.701,4.759 2.167,6.312 1.647,1.689 3.779,2.784 6.986,2.784 2.918,0 5.224,-0.741 6.977,-2.781 l 0.379,-0.496 0,2.816 6.103,0 0,-19.126 c 0,-3.397 -0.976,-5.888 -2.952,-7.565 m -3.267,16.128 c 0,2.073 -0.403,3.173 -1.401,4.213 -1.219,1.271 -2.627,1.734 -4.671,1.734 l -0.03,0 c -1.48,0 -2.675,-0.429 -3.446,-1.209 -0.765,-0.778 -1.051,-1.66 -1.049,-2.758 0,-1.136 0.41,-2.078 1.226,-2.708 0.818,-0.629 1.949,-0.95 3.299,-0.95 l 6.067,0 0,1.678 z m -27.031,-6.567 0,0 -3.365,-0.483 c -1.127,-0.155 -2,-0.578 -2.515,-1.06 -0.538,-0.502 -0.761,-1.192 -0.757,-1.863 0,-1.807 1.298,-3.34 4.158,-3.35 1.864,0 3.948,0.236 5.674,1.895 l 0.178,0.167 3.885,-3.839 -0.183,-0.173 c -2.481,-2.407 -5.412,-3.397 -9.357,-3.403 0,0 -0.03,0 -0.04,0 -6.267,0.04 -10.166,3.681 -10.195,8.921 l 0,0 c 0,2.438 0.7,4.365 2.115,5.765 1.335,1.302 3.2,2.077 5.679,2.447 l 3.459,0.477 c 1.286,0.195 1.865,0.468 2.38,0.94 0.528,0.5 0.798,1.264 0.805,2.226 0,1.014 -0.394,1.86 -1.192,2.42 -0.861,0.604 -1.978,0.813 -3.607,0.849 -2.62,0 -4.934,-0.659 -6.665,-2.401 l -0.18,-0.175 -3.915,4.114 0.1,0.125 c 2.834,2.861 6.214,3.882 10.519,3.885 l 0.07,0 c 6.045,-0.02 10.794,-3.28 10.812,-8.98 0,-2.57 -0.695,-4.739 -2.281,-6.238 -1.25,-1.17 -2.957,-1.912 -5.587,-2.275 m 49.363,0.289 0,5.304 4.931,0 c 0,0 0,0.628 0,1.28 -0.04,1.372 -0.315,2.697 -1.241,3.691 -0.923,0.944 -1.872,1.484 -4.099,1.484 -1.552,0 -2.744,-0.547 -3.535,-1.41 -0.531,-0.54 -0.936,-1.437 -1.1,-2.424 -0.192,-1.155 -0.287,-2.741 -0.287,-5.523 0,-2.79 0.06,-4.471 0.284,-5.607 0.167,-0.854 0.572,-1.763 1.09,-2.296 0.804,-0.879 2.05,-1.455 3.604,-1.455 2.421,0 3.663,0.732 4.483,2.152 0.1,0.174 0.241,0.483 0.336,0.783 l 6.582,0 c -0.101,-0.685 -0.378,-1.528 -0.701,-2.267 -1.539,-3.523 -5.203,-6.228 -10.553,-6.228 -0.03,0 -0.133,0 -0.157,0 0,0 -0.04,0 -0.05,0 -3.765,0 -6.255,1.088 -8.408,3.261 -2.914,2.934 -3.067,6.315 -3.067,10.87 0,0.26 0,0.519 0,0.787 l 0,0.629 c 0,4.553 0.28,8.528 3.061,11.114 2.189,2.035 5.025,3.196 8.413,3.197 l 0.03,0 c 3.269,0 6.319,-0.933 8.734,-3.42 2.503,-2.582 2.866,-6.193 2.866,-9.926 l 0,-3.996 -11.211,0 z"
           inkscape:connector-curvature="0" />
      </g>
      <text
         x="560.53625"
         y="1021.1927"
         id="text5384-0-4-1-4-1-8-1"
         xml:space="preserve"
         style="font-size:40px;font-style:normal;font-weight:normal;line-height:125%;letter-spacing:0px;word-spacing:0px;fill:#000000;fill-opacity:1;stroke:none;font-family:Sans"
         sodipodi:linespacing="125%"><tspan
           x="560.53625"
           y="1021.1927"
           id="tspan5386-9-8-2-1-3-7-7"
           style="font-size:12px">Linie:</tspan></text>
      <text
         x="624.3902"
         y="1033.3533"
         id="text5384-0-4-1-4-1-8-1-4"
         xml:space="preserve"
         style="font-size:40px;font-style:normal;font-weight:normal;line-height:125%;letter-spacing:0px;word-spacing:0px;fill:#000000;fill-opacity:1;stroke:none;font-family:Sans"
         sodipodi:linespacing="125%"><tspan
           x="624.3902"
           y="1033.3533"
           id="tspan5386-9-8-2-1-3-7-7-0"
           style="font-size:12px">Gerät#:</tspan></text>
      <text
         x="560.35529"
         y="1034.4337"
         id="text5384-0-4-1-4-1-8-1-4-9"
         xml:space="preserve"
         style="font-size:40px;font-style:normal;font-weight:normal;line-height:125%;letter-spacing:0px;word-spacing:0px;fill:#000000;fill-opacity:1;stroke:none;font-family:Sans"
         sodipodi:linespacing="125%"><tspan
           x="560.35529"
           y="1034.4337"
           id="tspan5386-9-8-2-1-3-7-7-0-4"
           style="font-size:12px">US#:</tspan></text>
      <text
         x="971.82977"
         y="1024.767"
         id="text5384-0-4-1-4-1-8-1-8"
         xml:space="preserve"
         style="font-size:40px;font-style:normal;font-weight:normal;line-height:125%;letter-spacing:0px;word-spacing:0px;fill:#000000;fill-opacity:1;stroke:none;font-family:Sans"
         sodipodi:linespacing="125%"><tspan
           x="971.82977"
           y="1024.767"
           id="tspan5386-9-8-2-1-3-7-7-8"
           style="font-size:12px">DateiName:</tspan></text>
      <text
         x="1259.5436"
         y="1032.8481"
         id="text5384-0-4-1-4-1-8-1-8-2"
         xml:space="preserve"
         style="font-size:40px;font-style:normal;font-weight:normal;line-height:125%;letter-spacing:0px;word-spacing:0px;fill:#000000;fill-opacity:1;stroke:none;font-family:Sans"
         sodipodi:linespacing="125%"><tspan
           x="1259.5436"
           y="1032.8481"
           id="tspan5386-9-8-2-1-3-7-7-8-4"
           style="font-size:12px">SeitenAnzahl:</tspan><tspan
           x="1259.5436"
           y="1032.8481"
           style="font-size:12px"
           id="tspan3188" /></text>
      <text
         x="1171.297"
         y="928.80249"
         xml:space="preserve"
         style="font-size:40px;font-style:normal;font-weight:normal;line-height:125%;letter-spacing:0px;word-spacing:0px;fill:#000000;fill-opacity:1;stroke:none;font-family:Sans"
         sodipodi:linespacing="125%"
         id="text3184"><tspan
           x="1171.297"
           y="928.80249"
           style="font-size:12px"
           id="tspan3186">:</tspan></text>
      <text
         x="1171.297"
         y="928.80249"
         xml:space="preserve"
         style="font-size:40px;font-style:normal;font-weight:normal;line-height:125%;letter-spacing:0px;word-spacing:0px;fill:#000000;fill-opacity:1;stroke:none;font-family:Sans"
         sodipodi:linespacing="125%"
         id="text3159"><tspan
           x="1171.297"
           y="928.80249"
           style="font-size:12px"
           id="tspan3161">::</tspan></text>
      <text
         x="1259.4438"
         y="1017.261"
         id="text5384-0-4-1-4-1-8-1-8-2-5"
         xml:space="preserve"
         style="font-size:40px;font-style:normal;font-weight:normal;line-height:125%;letter-spacing:0px;word-spacing:0px;fill:#000000;fill-opacity:1;stroke:none;font-family:Sans"
         sodipodi:linespacing="125%"><tspan
           x="1259.4438"
           y="1017.261"
           id="tspan5386-9-8-2-1-3-7-7-8-4-5"
           style="font-size:12px">Seite:</tspan></text>
    </g>
  </g>
</svg>
